<svg id="visual" viewBox="0 0 960 300" width="960" height="300" xmlns="http://www.w3.org/2000/svg" xmlns:xlink="http://www.w3.org/1999/xlink" version="1.1"><rect x="0" y="0" width="960" height="300" fill="#001220"></rect><defs><linearGradient id="grad1_0" x1="68.8%" y1="100%" x2="100%" y2="0%"><stop offset="-14.000000000000007%" stop-color="#ff3300" stop-opacity="1"></stop><stop offset="114.00000000000001%" stop-color="#ff3300" stop-opacity="1"></stop></linearGradient></defs><defs><linearGradient id="grad1_1" x1="68.8%" y1="100%" x2="100%" y2="0%"><stop offset="-14.000000000000007%" stop-color="#ff3300" stop-opacity="1"></stop><stop offset="114.00000000000001%" stop-color="#ec003f" stop-opacity="1"></stop></linearGradient></defs><defs><linearGradient id="grad1_2" x1="68.8%" y1="100%" x2="100%" y2="0%"><stop offset="-14.000000000000007%" stop-color="#c7005e" stop-opacity="1"></stop><stop offset="114.00000000000001%" stop-color="#ec003f" stop-opacity="1"></stop></linearGradient></defs><defs><linearGradient id="grad1_3" x1="68.8%" y1="100%" x2="100%" y2="0%"><stop offset="-14.000000000000007%" stop-color="#c7005e" stop-opacity="1"></stop><stop offset="114.00000000000001%" stop-color="#970b6e" stop-opacity="1"></stop></linearGradient></defs><defs><linearGradient id="grad1_4" x1="68.8%" y1="100%" x2="100%" y2="0%"><stop offset="-14.000000000000007%" stop-color="#63246d" stop-opacity="1"></stop><stop offset="114.00000000000001%" stop-color="#970b6e" stop-opacity="1"></stop></linearGradient></defs><defs><linearGradient id="grad1_5" x1="68.8%" y1="100%" x2="100%" y2="0%"><stop offset="-14.000000000000007%" stop-color="#63246d" stop-opacity="1"></stop><stop offset="114.00000000000001%" stop-color="#31265c" stop-opacity="1"></stop></linearGradient></defs><defs><linearGradient id="grad1_6" x1="68.8%" y1="100%" x2="100%" y2="0%"><stop offset="-14.000000000000007%" stop-color="#0a1f40" stop-opacity="1"></stop><stop offset="114.00000000000001%" stop-color="#31265c" stop-opacity="1"></stop></linearGradient></defs><defs><linearGradient id="grad1_7" x1="68.8%" y1="100%" x2="100%" y2="0%"><stop offset="-14.000000000000007%" stop-color="#0a1f40" stop-opacity="1"></stop><stop offset="114.00000000000001%" stop-color="#001220" stop-opacity="1"></stop></linearGradient></defs><defs><linearGradient id="grad2_0" x1="0%" y1="100%" x2="31.3%" y2="0%"><stop offset="-14.000000000000007%" stop-color="#ff3300" stop-opacity="1"></stop><stop offset="114.00000000000001%" stop-color="#ff3300" stop-opacity="1"></stop></linearGradient></defs><defs><linearGradient id="grad2_1" x1="0%" y1="100%" x2="31.3%" y2="0%"><stop offset="-14.000000000000007%" stop-color="#ec003f" stop-opacity="1"></stop><stop offset="114.00000000000001%" stop-color="#ff3300" stop-opacity="1"></stop></linearGradient></defs><defs><linearGradient id="grad2_2" x1="0%" y1="100%" x2="31.3%" y2="0%"><stop offset="-14.000000000000007%" stop-color="#ec003f" stop-opacity="1"></stop><stop offset="114.00000000000001%" stop-color="#c7005e" stop-opacity="1"></stop></linearGradient></defs><defs><linearGradient id="grad2_3" x1="0%" y1="100%" x2="31.3%" y2="0%"><stop offset="-14.000000000000007%" stop-color="#970b6e" stop-opacity="1"></stop><stop offset="114.00000000000001%" stop-color="#c7005e" stop-opacity="1"></stop></linearGradient></defs><defs><linearGradient id="grad2_4" x1="0%" y1="100%" x2="31.3%" y2="0%"><stop offset="-14.000000000000007%" stop-color="#970b6e" stop-opacity="1"></stop><stop offset="114.00000000000001%" stop-color="#63246d" stop-opacity="1"></stop></linearGradient></defs><defs><linearGradient id="grad2_5" x1="0%" y1="100%" x2="31.3%" y2="0%"><stop offset="-14.000000000000007%" stop-color="#31265c" stop-opacity="1"></stop><stop offset="114.00000000000001%" stop-color="#63246d" stop-opacity="1"></stop></linearGradient></defs><defs><linearGradient id="grad2_6" x1="0%" y1="100%" x2="31.3%" y2="0%"><stop offset="-14.000000000000007%" stop-color="#31265c" stop-opacity="1"></stop><stop offset="114.00000000000001%" stop-color="#0a1f40" stop-opacity="1"></stop></linearGradient></defs><defs><linearGradient id="grad2_7" x1="0%" y1="100%" x2="31.3%" y2="0%"><stop offset="-14.000000000000007%" stop-color="#001220" stop-opacity="1"></stop><stop offset="114.00000000000001%" stop-color="#0a1f40" stop-opacity="1"></stop></linearGradient></defs><g transform="translate(960, 300)"><path d="M-300 0C-299 -32.3 -298 -64.7 -285.3 -92.7C-272.6 -120.7 -248.2 -144.5 -221.7 -161.1C-195.1 -177.6 -166.3 -187.1 -141.7 -195C-117 -202.8 -96.5 -209.1 -73.5 -226.4C-50.6 -243.6 -25.3 -271.8 0 -300L0 0Z" fill="#021930"></path><path d="M-262.5 0C-261.6 -28.3 -260.8 -56.6 -249.7 -81.1C-238.6 -105.6 -217.2 -126.4 -194 -140.9C-170.7 -155.4 -145.5 -163.7 -123.9 -170.6C-102.4 -177.5 -84.4 -183 -64.4 -198.1C-44.3 -213.1 -22.1 -237.8 0 -262.5L0 0Z" fill="#1b244f"></path><path d="M-225 0C-224.3 -24.3 -223.5 -48.5 -214 -69.5C-204.5 -90.6 -186.2 -108.3 -166.3 -120.8C-146.3 -133.2 -124.7 -140.3 -106.2 -146.2C-87.8 -152.1 -72.4 -156.8 -55.2 -169.8C-38 -182.7 -19 -203.8 0 -225L0 0Z" fill="#492766"></path><path d="M-187.5 0C-186.9 -20.2 -186.3 -40.4 -178.3 -57.9C-170.4 -75.5 -155.2 -90.3 -138.5 -100.7C-121.9 -111 -103.9 -116.9 -88.5 -121.9C-73.1 -126.8 -60.3 -130.7 -46 -141.5C-31.6 -152.2 -15.8 -169.9 0 -187.5L0 0Z" fill="#7d1c6f"></path><path d="M-150 0C-149.5 -16.2 -149 -32.3 -142.7 -46.4C-136.3 -60.4 -124.1 -72.2 -110.8 -80.5C-97.5 -88.8 -83.2 -93.6 -70.8 -97.5C-58.5 -101.4 -48.2 -104.6 -36.8 -113.2C-25.3 -121.8 -12.7 -135.9 0 -150L0 0Z" fill="#b00068"></path><path d="M-112.5 0C-112.1 -12.1 -111.8 -24.3 -107 -34.8C-102.2 -45.3 -93.1 -54.2 -83.1 -60.4C-73.2 -66.6 -62.4 -70.2 -53.1 -73.1C-43.9 -76.1 -36.2 -78.4 -27.6 -84.9C-19 -91.3 -9.5 -101.9 0 -112.5L0 0Z" fill="#db0050"></path><path d="M-75 0C-74.8 -8.1 -74.5 -16.2 -71.3 -23.2C-68.2 -30.2 -62.1 -36.1 -55.4 -40.3C-48.8 -44.4 -41.6 -46.8 -35.4 -48.7C-29.3 -50.7 -24.1 -52.3 -18.4 -56.6C-12.7 -60.9 -6.3 -67.9 0 -75L0 0Z" fill="#f80629"></path><path d="M-37.5 0C-37.4 -4 -37.3 -8.1 -35.7 -11.6C-34.1 -15.1 -31 -18.1 -27.7 -20.1C-24.4 -22.2 -20.8 -23.4 -17.7 -24.4C-14.6 -25.4 -12.1 -26.1 -9.2 -28.3C-6.3 -30.4 -3.2 -34 0 -37.5L0 0Z" fill="#ff3300"></path></g><g transform="translate(0, 0)"><path d="M300 0C263.7 20 227.5 39.9 224.4 72.9C221.4 105.9 251.6 152 242.7 176.3C233.8 200.7 185.7 203.3 152.8 210.3C120 217.4 102.3 228.8 79.4 244.4C56.5 260.1 28.2 280 0 300L0 0Z" fill="#021930"></path><path d="M262.5 0C230.8 17.5 199 34.9 196.4 63.8C193.7 92.7 220.2 133 212.4 154.3C204.5 175.6 162.5 177.9 133.7 184.1C105 190.2 89.6 200.2 69.5 213.9C49.4 227.6 24.7 245 0 262.5L0 0Z" fill="#1b244f"></path><path d="M225 0C197.8 15 170.6 29.9 168.3 54.7C166.1 79.5 188.7 114 182 132.3C175.3 150.5 139.3 152.5 114.6 157.8C90 163 76.8 171.6 59.6 183.3C42.4 195.1 21.2 210 0 225L0 0Z" fill="#492766"></path><path d="M187.5 0C164.8 12.5 142.2 25 140.3 45.6C138.4 66.2 157.3 95 151.7 110.2C146.1 125.4 116 127.1 95.5 131.5C75 135.9 64 143 49.6 152.8C35.3 162.6 17.7 175 0 187.5L0 0Z" fill="#7d1c6f"></path><path d="M150 0C131.9 10 113.7 20 112.2 36.5C110.7 53 125.8 76 121.4 88.2C116.9 100.3 92.8 101.7 76.4 105.2C60 108.7 51.2 114.4 39.7 122.2C28.2 130 14.1 140 0 150L0 0Z" fill="#b00068"></path><path d="M112.5 0C98.9 7.5 85.3 15 84.2 27.3C83 39.7 94.4 57 91 66.1C87.7 75.3 69.6 76.2 57.3 78.9C45 81.5 38.4 85.8 29.8 91.7C21.2 97.5 10.6 105 0 112.5L0 0Z" fill="#db0050"></path><path d="M75 0C65.9 5 56.9 10 56.1 18.2C55.4 26.5 62.9 38 60.7 44.1C58.4 50.2 46.4 50.8 38.2 52.6C30 54.3 25.6 57.2 19.9 61.1C14.1 65 7.1 70 0 75L0 0Z" fill="#f80629"></path><path d="M37.5 0C33 2.5 28.4 5 28.1 9.1C27.7 13.2 31.5 19 30.3 22C29.2 25.1 23.2 25.4 19.1 26.3C15 27.2 12.8 28.6 9.9 30.6C7.1 32.5 3.5 35 0 37.5L0 0Z" fill="#ff3300"></path></g></svg>