<svg id="visual" viewBox="0 0 540 960" width="540" height="960" xmlns="http://www.w3.org/2000/svg" xmlns:xlink="http://www.w3.org/1999/xlink" version="1.1"><rect x="0" y="0" width="540" height="960" fill="#001220"></rect><defs><linearGradient id="grad1_0" x1="0%" y1="0%" x2="100%" y2="100%"><stop offset="30%" stop-color="#fbae3c" stop-opacity="1"></stop><stop offset="70%" stop-color="#fbae3c" stop-opacity="1"></stop></linearGradient></defs><defs><linearGradient id="grad1_1" x1="0%" y1="0%" x2="100%" y2="100%"><stop offset="30%" stop-color="#fbae3c" stop-opacity="1"></stop><stop offset="70%" stop-color="#f48350" stop-opacity="1"></stop></linearGradient></defs><defs><linearGradient id="grad1_2" x1="0%" y1="0%" x2="100%" y2="100%"><stop offset="30%" stop-color="#d96162" stop-opacity="1"></stop><stop offset="70%" stop-color="#f48350" stop-opacity="1"></stop></linearGradient></defs><defs><linearGradient id="grad1_3" x1="0%" y1="0%" x2="100%" y2="100%"><stop offset="30%" stop-color="#d96162" stop-opacity="1"></stop><stop offset="70%" stop-color="#af4b6d" stop-opacity="1"></stop></linearGradient></defs><defs><linearGradient id="grad1_4" x1="0%" y1="0%" x2="100%" y2="100%"><stop offset="30%" stop-color="#7c3e6b" stop-opacity="1"></stop><stop offset="70%" stop-color="#af4b6d" stop-opacity="1"></stop></linearGradient></defs><defs><linearGradient id="grad1_5" x1="0%" y1="0%" x2="100%" y2="100%"><stop offset="30%" stop-color="#7c3e6b" stop-opacity="1"></stop><stop offset="70%" stop-color="#49335c" stop-opacity="1"></stop></linearGradient></defs><defs><linearGradient id="grad1_6" x1="0%" y1="0%" x2="100%" y2="100%"><stop offset="30%" stop-color="#1d2540" stop-opacity="1"></stop><stop offset="70%" stop-color="#49335c" stop-opacity="1"></stop></linearGradient></defs><defs><linearGradient id="grad1_7" x1="0%" y1="0%" x2="100%" y2="100%"><stop offset="30%" stop-color="#1d2540" stop-opacity="1"></stop><stop offset="70%" stop-color="#001220" stop-opacity="1"></stop></linearGradient></defs><defs><linearGradient id="grad2_0" x1="0%" y1="0%" x2="100%" y2="100%"><stop offset="30%" stop-color="#fbae3c" stop-opacity="1"></stop><stop offset="70%" stop-color="#fbae3c" stop-opacity="1"></stop></linearGradient></defs><defs><linearGradient id="grad2_1" x1="0%" y1="0%" x2="100%" y2="100%"><stop offset="30%" stop-color="#f48350" stop-opacity="1"></stop><stop offset="70%" stop-color="#fbae3c" stop-opacity="1"></stop></linearGradient></defs><defs><linearGradient id="grad2_2" x1="0%" y1="0%" x2="100%" y2="100%"><stop offset="30%" stop-color="#f48350" stop-opacity="1"></stop><stop offset="70%" stop-color="#d96162" stop-opacity="1"></stop></linearGradient></defs><defs><linearGradient id="grad2_3" x1="0%" y1="0%" x2="100%" y2="100%"><stop offset="30%" stop-color="#af4b6d" stop-opacity="1"></stop><stop offset="70%" stop-color="#d96162" stop-opacity="1"></stop></linearGradient></defs><defs><linearGradient id="grad2_4" x1="0%" y1="0%" x2="100%" y2="100%"><stop offset="30%" stop-color="#af4b6d" stop-opacity="1"></stop><stop offset="70%" stop-color="#7c3e6b" stop-opacity="1"></stop></linearGradient></defs><defs><linearGradient id="grad2_5" x1="0%" y1="0%" x2="100%" y2="100%"><stop offset="30%" stop-color="#49335c" stop-opacity="1"></stop><stop offset="70%" stop-color="#7c3e6b" stop-opacity="1"></stop></linearGradient></defs><defs><linearGradient id="grad2_6" x1="0%" y1="0%" x2="100%" y2="100%"><stop offset="30%" stop-color="#49335c" stop-opacity="1"></stop><stop offset="70%" stop-color="#1d2540" stop-opacity="1"></stop></linearGradient></defs><defs><linearGradient id="grad2_7" x1="0%" y1="0%" x2="100%" y2="100%"><stop offset="30%" stop-color="#001220" stop-opacity="1"></stop><stop offset="70%" stop-color="#1d2540" stop-opacity="1"></stop></linearGradient></defs><g transform="translate(540, 0)"><path d="M0 486C-41.1 459.7 -82.2 433.3 -138.7 427C-195.3 420.7 -267.2 434.4 -285.7 393.2C-304.2 351.9 -269.3 255.7 -286.4 208.1C-303.5 160.4 -372.7 161.3 -414.7 134.7C-456.6 108.1 -471.3 54.1 -486 0L0 0Z" fill="#0c1c30"></path><path d="M0 425.3C-36 402.2 -72 379.2 -121.4 373.6C-170.9 368.1 -233.8 380.1 -250 344C-266.1 307.9 -235.6 223.8 -250.6 182.1C-265.6 140.4 -326.1 141.2 -362.8 117.9C-399.5 94.6 -412.4 47.3 -425.2 0L0 0Z" fill="#312c4f"></path><path d="M0 364.5C-30.8 344.8 -61.7 325 -104.1 320.3C-146.4 315.5 -200.4 325.8 -214.2 294.9C-228.1 264 -201.9 191.8 -214.8 156.1C-227.6 120.3 -279.5 121 -311 101C-342.5 81.1 -353.5 40.6 -364.5 0L0 0Z" fill="#623965"></path><path d="M0 303.8C-25.7 287.3 -51.4 270.8 -86.7 266.9C-122 262.9 -167 271.5 -178.5 245.7C-190.1 220 -168.3 159.8 -179 130C-189.7 100.3 -232.9 100.8 -259.2 84.2C-285.4 67.6 -294.6 33.8 -303.7 0L0 0Z" fill="#96446e"></path><path d="M0 243C-20.6 229.8 -41.1 216.7 -69.4 213.5C-97.6 210.4 -133.6 217.2 -142.8 196.6C-152.1 176 -134.6 127.9 -143.2 104C-151.8 80.2 -186.4 80.7 -207.3 67.4C-228.3 54.1 -235.7 27 -243 0L0 0Z" fill="#c55469"></path><path d="M0 182.3C-15.4 172.4 -30.8 162.5 -52 160.1C-73.2 157.8 -100.2 162.9 -107.1 147.4C-114.1 132 -101 95.9 -107.4 78C-113.8 60.2 -139.8 60.5 -155.5 50.5C-171.2 40.6 -176.7 20.3 -182.2 0L0 0Z" fill="#e9705a"></path><path d="M0 121.5C-10.3 114.9 -20.6 108.3 -34.7 106.8C-48.8 105.2 -66.8 108.6 -71.4 98.3C-76 88 -67.3 63.9 -71.6 52C-75.9 40.1 -93.2 40.3 -103.7 33.7C-114.2 27 -117.8 13.5 -121.5 0L0 0Z" fill="#fa9845"></path><path d="M0 60.8C-5.1 57.5 -10.3 54.2 -17.3 53.4C-24.4 52.6 -33.4 54.3 -35.7 49.1C-38 44 -33.7 32 -35.8 26C-37.9 20.1 -46.6 20.2 -51.8 16.8C-57.1 13.5 -58.9 6.8 -60.7 0L0 0Z" fill="#fbae3c"></path></g><g transform="translate(0, 960)"><path d="M0 -486C14.7 -387.3 29.4 -288.6 96.4 -296.7C163.4 -304.8 282.6 -419.8 285.7 -393.2C288.7 -366.6 175.5 -198.5 199.8 -145.2C224.1 -91.9 385.9 -153.4 456.5 -148.3C527.1 -143.3 506.6 -71.6 486 0L0 0Z" fill="#0c1c30"></path><path d="M0 -425.2C12.9 -338.9 25.8 -252.5 84.4 -259.6C143 -266.7 247.3 -367.3 250 -344C252.6 -320.8 153.6 -173.7 174.8 -127C196.1 -80.4 337.7 -134.2 399.4 -129.8C461.2 -125.4 443.2 -62.7 425.3 0L0 0Z" fill="#312c4f"></path><path d="M0 -364.5C11 -290.5 22.1 -216.5 72.3 -222.5C122.5 -228.6 212 -314.8 214.2 -294.9C216.5 -274.9 131.6 -148.9 149.9 -108.9C168.1 -68.9 289.4 -115 342.4 -111.2C395.3 -107.4 379.9 -53.7 364.5 0L0 0Z" fill="#623965"></path><path d="M0 -303.7C9.2 -242.1 18.4 -180.4 60.3 -185.5C102.1 -190.5 176.6 -262.4 178.5 -245.7C180.4 -229.1 109.7 -124.1 124.9 -90.7C140.1 -57.4 241.2 -95.9 285.3 -92.7C329.4 -89.5 316.6 -44.8 303.8 0L0 0Z" fill="#96446e"></path><path d="M0 -243C7.4 -193.7 14.7 -144.3 48.2 -148.4C81.7 -152.4 141.3 -209.9 142.8 -196.6C144.3 -183.3 87.8 -99.2 99.9 -72.6C112.1 -45.9 192.9 -76.7 228.3 -74.2C263.6 -71.6 253.3 -35.8 243 0L0 0Z" fill="#c55469"></path><path d="M0 -182.2C5.5 -145.2 11 -108.2 36.2 -111.3C61.3 -114.3 106 -157.4 107.1 -147.4C108.3 -137.5 65.8 -74.4 74.9 -54.4C84 -34.5 144.7 -57.5 171.2 -55.6C197.7 -53.7 190 -26.9 182.3 0L0 0Z" fill="#e9705a"></path><path d="M0 -121.5C3.7 -96.8 7.4 -72.2 24.1 -74.2C40.8 -76.2 70.7 -104.9 71.4 -98.3C72.2 -91.6 43.9 -49.6 50 -36.3C56 -23 96.5 -38.3 114.1 -37.1C131.8 -35.8 126.6 -17.9 121.5 0L0 0Z" fill="#fa9845"></path><path d="M0 -60.7C1.8 -48.4 3.7 -36.1 12.1 -37.1C20.4 -38.1 35.3 -52.5 35.7 -49.1C36.1 -45.8 21.9 -24.8 25 -18.1C28 -11.5 48.2 -19.2 57.1 -18.5C65.9 -17.9 63.3 -9 60.8 0L0 0Z" fill="#fbae3c"></path></g></svg>