<svg id="visual" viewBox="0 0 960 300" width="960" height="300" xmlns="http://www.w3.org/2000/svg" xmlns:xlink="http://www.w3.org/1999/xlink" version="1.1"><path d="M0 234L10.7 232.8C21.3 231.7 42.7 229.3 64 229C85.3 228.7 106.7 230.3 128 225.2C149.3 220 170.7 208 192 206.8C213.3 205.7 234.7 215.3 256 217C277.3 218.7 298.7 212.3 320 210.2C341.3 208 362.7 210 384 214.2C405.3 218.3 426.7 224.7 448 228.2C469.3 231.7 490.7 232.3 512 229.7C533.3 227 554.7 221 576 216C597.3 211 618.7 207 640 211.3C661.3 215.7 682.7 228.3 704 232.2C725.3 236 746.7 231 768 230.8C789.3 230.7 810.7 235.3 832 233.8C853.3 232.3 874.7 224.7 896 222.3C917.3 220 938.7 223 949.3 224.5L960 226L960 301L949.3 301C938.7 301 917.3 301 896 301C874.7 301 853.3 301 832 301C810.7 301 789.3 301 768 301C746.7 301 725.3 301 704 301C682.7 301 661.3 301 640 301C618.7 301 597.3 301 576 301C554.7 301 533.3 301 512 301C490.7 301 469.3 301 448 301C426.7 301 405.3 301 384 301C362.7 301 341.3 301 320 301C298.7 301 277.3 301 256 301C234.7 301 213.3 301 192 301C170.7 301 149.3 301 128 301C106.7 301 85.3 301 64 301C42.7 301 21.3 301 10.7 301L0 301Z" fill="#001220"></path><path d="M0 246L10.7 243.5C21.3 241 42.7 236 64 230C85.3 224 106.7 217 128 220.3C149.3 223.7 170.7 237.3 192 242.8C213.3 248.3 234.7 245.7 256 242C277.3 238.3 298.7 233.7 320 231.3C341.3 229 362.7 229 384 226C405.3 223 426.7 217 448 217.7C469.3 218.3 490.7 225.7 512 230.7C533.3 235.7 554.7 238.3 576 235C597.3 231.7 618.7 222.3 640 219.2C661.3 216 682.7 219 704 219.7C725.3 220.3 746.7 218.7 768 221.3C789.3 224 810.7 231 832 231.2C853.3 231.3 874.7 224.7 896 225.2C917.3 225.7 938.7 233.3 949.3 237.2L960 241L960 301L949.3 301C938.7 301 917.3 301 896 301C874.7 301 853.3 301 832 301C810.7 301 789.3 301 768 301C746.7 301 725.3 301 704 301C682.7 301 661.3 301 640 301C618.7 301 597.3 301 576 301C554.7 301 533.3 301 512 301C490.7 301 469.3 301 448 301C426.7 301 405.3 301 384 301C362.7 301 341.3 301 320 301C298.7 301 277.3 301 256 301C234.7 301 213.3 301 192 301C170.7 301 149.3 301 128 301C106.7 301 85.3 301 64 301C42.7 301 21.3 301 10.7 301L0 301Z" fill="#002d4e"></path><path d="M0 250L10.7 251.5C21.3 253 42.7 256 64 255.8C85.3 255.7 106.7 252.3 128 247.3C149.3 242.3 170.7 235.7 192 233.2C213.3 230.7 234.7 232.3 256 236C277.3 239.7 298.7 245.3 320 246.3C341.3 247.3 362.7 243.7 384 241.3C405.3 239 426.7 238 448 236.7C469.3 235.3 490.7 233.7 512 237.3C533.3 241 554.7 250 576 254.2C597.3 258.3 618.7 257.7 640 252.5C661.3 247.3 682.7 237.7 704 233.7C725.3 229.7 746.7 231.3 768 235.7C789.3 240 810.7 247 832 247.2C853.3 247.3 874.7 240.7 896 237.3C917.3 234 938.7 234 949.3 234L960 234L960 301L949.3 301C938.7 301 917.3 301 896 301C874.7 301 853.3 301 832 301C810.7 301 789.3 301 768 301C746.7 301 725.3 301 704 301C682.7 301 661.3 301 640 301C618.7 301 597.3 301 576 301C554.7 301 533.3 301 512 301C490.7 301 469.3 301 448 301C426.7 301 405.3 301 384 301C362.7 301 341.3 301 320 301C298.7 301 277.3 301 256 301C234.7 301 213.3 301 192 301C170.7 301 149.3 301 128 301C106.7 301 85.3 301 64 301C42.7 301 21.3 301 10.7 301L0 301Z" fill="#004880"></path><path d="M0 243L10.7 247.3C21.3 251.7 42.7 260.3 64 262.5C85.3 264.7 106.7 260.3 128 256C149.3 251.7 170.7 247.3 192 247.7C213.3 248 234.7 253 256 253.7C277.3 254.3 298.7 250.7 320 251.3C341.3 252 362.7 257 384 258C405.3 259 426.7 256 448 252.5C469.3 249 490.7 245 512 246.7C533.3 248.3 554.7 255.7 576 259.7C597.3 263.7 618.7 264.3 640 263.5C661.3 262.7 682.7 260.3 704 256.7C725.3 253 746.7 248 768 247.2C789.3 246.3 810.7 249.7 832 249.5C853.3 249.3 874.7 245.7 896 244.5C917.3 243.3 938.7 244.7 949.3 245.3L960 246L960 301L949.3 301C938.7 301 917.3 301 896 301C874.7 301 853.3 301 832 301C810.7 301 789.3 301 768 301C746.7 301 725.3 301 704 301C682.7 301 661.3 301 640 301C618.7 301 597.3 301 576 301C554.7 301 533.3 301 512 301C490.7 301 469.3 301 448 301C426.7 301 405.3 301 384 301C362.7 301 341.3 301 320 301C298.7 301 277.3 301 256 301C234.7 301 213.3 301 192 301C170.7 301 149.3 301 128 301C106.7 301 85.3 301 64 301C42.7 301 21.3 301 10.7 301L0 301Z" fill="#004880"></path><path d="M0 277L10.7 277.7C21.3 278.3 42.7 279.7 64 276.3C85.3 273 106.7 265 128 262C149.3 259 170.7 261 192 265C213.3 269 234.7 275 256 275.8C277.3 276.7 298.7 272.3 320 271.3C341.3 270.3 362.7 272.7 384 273.5C405.3 274.3 426.7 273.7 448 271.7C469.3 269.7 490.7 266.3 512 265.2C533.3 264 554.7 265 576 265.3C597.3 265.7 618.7 265.3 640 264.7C661.3 264 682.7 263 704 262.2C725.3 261.3 746.7 260.7 768 262C789.3 263.3 810.7 266.7 832 268C853.3 269.3 874.7 268.7 896 267.8C917.3 267 938.7 266 949.3 265.5L960 265L960 301L949.3 301C938.7 301 917.3 301 896 301C874.7 301 853.3 301 832 301C810.7 301 789.3 301 768 301C746.7 301 725.3 301 704 301C682.7 301 661.3 301 640 301C618.7 301 597.3 301 576 301C554.7 301 533.3 301 512 301C490.7 301 469.3 301 448 301C426.7 301 405.3 301 384 301C362.7 301 341.3 301 320 301C298.7 301 277.3 301 256 301C234.7 301 213.3 301 192 301C170.7 301 149.3 301 128 301C106.7 301 85.3 301 64 301C42.7 301 21.3 301 10.7 301L0 301Z" fill="#002d4e"></path><path d="M0 277L10.7 278.3C21.3 279.7 42.7 282.3 64 283.5C85.3 284.7 106.7 284.3 128 284.3C149.3 284.3 170.7 284.7 192 285.3C213.3 286 234.7 287 256 285.8C277.3 284.7 298.7 281.3 320 278.7C341.3 276 362.7 274 384 273.5C405.3 273 426.7 274 448 275.8C469.3 277.7 490.7 280.3 512 280.2C533.3 280 554.7 277 576 276.2C597.3 275.3 618.7 276.7 640 279C661.3 281.3 682.7 284.7 704 285.3C725.3 286 746.7 284 768 283.5C789.3 283 810.7 284 832 284.2C853.3 284.3 874.7 283.7 896 284.2C917.3 284.7 938.7 286.3 949.3 287.2L960 288L960 301L949.3 301C938.7 301 917.3 301 896 301C874.7 301 853.3 301 832 301C810.7 301 789.3 301 768 301C746.7 301 725.3 301 704 301C682.7 301 661.3 301 640 301C618.7 301 597.3 301 576 301C554.7 301 533.3 301 512 301C490.7 301 469.3 301 448 301C426.7 301 405.3 301 384 301C362.7 301 341.3 301 320 301C298.7 301 277.3 301 256 301C234.7 301 213.3 301 192 301C170.7 301 149.3 301 128 301C106.7 301 85.3 301 64 301C42.7 301 21.3 301 10.7 301L0 301Z" fill="#001220"></path></svg>